<svg xmlns="http://www.w3.org/2000/svg" version="1.1" xmlns:xlink="http://www.w3.org/1999/xlink" xmlns:svgjs="http://svgjs.com/svgjs" width="1440" height="560" preserveAspectRatio="none" viewBox="0 0 1440 560"><g mask="url(&quot;#SvgjsMask1920&quot;)" fill="none"><rect width="1440" height="560" x="0" y="0" fill="url(#SvgjsLinearGradient1921)"></rect><path d="M738.83 335.58 a149.83 149.83 0 1 0 299.66 0 a149.83 149.83 0 1 0 -299.66 0z" fill="rgba(159, 4, 184, 0.11)" class="triangle-float2"></path><path d="M1267.58 179.41 a102.71 102.71 0 1 0 205.42 0 a102.71 102.71 0 1 0 -205.42 0z" fill="rgba(159, 4, 184, 0.11)" class="triangle-float3"></path><path d="M564.9015091526936 611.0171465192027L702.1752590646397 552.7478967549262 506.6322593884171 473.7433966072566z" fill="rgba(159, 4, 184, 0.11)" class="triangle-float1"></path><path d="M598.148,497.322C620.978,497.813,636.722,476.141,646.474,455.493C654.732,438.007,652.235,418.665,643.425,401.451C633.55,382.156,619.789,362.276,598.148,361.071C574.949,359.779,553.35,374.968,543.205,395.871C534.08,414.672,543.34,435.114,553.292,453.49C563.962,473.192,575.747,496.84,598.148,497.322" fill="rgba(159, 4, 184, 0.11)" class="triangle-float1"></path><path d="M148.5069271527474 384.97833318174713L59.565039619453 339.6601779574624 14.246884395168252 428.6020654907568 103.18877192846264 473.9202207150415z" fill="rgba(159, 4, 184, 0.11)" class="triangle-float1"></path><path d="M238.83,601.375C270.124,602.425,302.167,592.017,318.784,565.478C336.345,537.431,334.427,502.288,319.303,472.855C302.618,440.383,275.311,408.461,238.83,409.875C203.695,411.237,183.512,446.915,168.483,478.702C156.005,505.094,153.134,535.084,167.656,560.409C182.251,585.86,209.507,600.391,238.83,601.375" fill="rgba(159, 4, 184, 0.11)" class="triangle-float3"></path><path d="M228.38117293959846 443.12619357891447L293.9249417581451 342.40791156052575 189.13578666074807 335.0803400183108z" fill="rgba(159, 4, 184, 0.11)" class="triangle-float2"></path><path d="M170.728,754.019C220.788,752.398,264.038,722.896,289.722,679.896C316.161,635.632,329.364,579.033,300.941,536.016C274.322,495.73,219.013,500.07,170.728,499.807C121.721,499.54,66.333,494.572,38.035,534.585C6.375,579.353,9.22,641.14,37.593,688.06C65.06,733.483,117.674,755.737,170.728,754.019" fill="rgba(159, 4, 184, 0.11)" class="triangle-float1"></path><path d="M71.33172951156666 242.05768268749347L146.31837387176466 130.88541059931785 35.14610178358906 55.89876623911982-39.840542576608954 167.07103832729547z" fill="rgba(159, 4, 184, 0.11)" class="triangle-float3"></path><path d="M529.227897977989 201.73239666343207L406.4577394607198 190.99139957389033 395.71674237117804 313.76155809115954 518.4869008884473 324.5025551807013z" fill="rgba(159, 4, 184, 0.11)" class="triangle-float2"></path><path d="M439.24,691.176C480.535,691.244,511.722,657.247,530.793,620.62C548.267,587.061,550.171,547.405,531.119,514.716C512.199,482.252,476.815,463.416,439.24,463.533C401.872,463.649,367.109,482.969,348.346,515.285C329.504,547.737,330.981,586.982,348.208,620.319C367.128,656.932,398.027,691.108,439.24,691.176" fill="rgba(159, 4, 184, 0.11)" class="triangle-float1"></path><path d="M864.8286105470906 201.70027814215865L1007.8384763034867 135.0136825482328 798.1420149531648 58.69041238576264z" fill="rgba(159, 4, 184, 0.11)" class="triangle-float1"></path><path d="M-139.79 437.73 a164.91 164.91 0 1 0 329.82 0 a164.91 164.91 0 1 0 -329.82 0z" fill="rgba(159, 4, 184, 0.11)" class="triangle-float1"></path><path d="M513.7833119077503 519.7697823782066L652.3390498152305 587.347931088475 719.9171985254989 448.7921931809948 581.3614606180187 381.21404447072644z" fill="rgba(159, 4, 184, 0.11)" class="triangle-float1"></path></g><defs><mask id="SvgjsMask1920"><rect width="1440" height="560" fill="#ffffff"></rect></mask><linearGradient x1="100%" y1="50%" x2="0%" y2="50%" gradientUnits="userSpaceOnUse" id="SvgjsLinearGradient1921"><stop stop-color="rgba(255, 255, 255, 1)" offset="0"></stop><stop stop-color="rgba(250, 250, 250, 1)" offset="1"></stop></linearGradient><style>
            @keyframes float1 {
                0%{transform: translate(0, 0)}
                50%{transform: translate(-10px, 0)}
                100%{transform: translate(0, 0)}
            }

            .triangle-float1 {
                animation: float1 5s infinite;
            }

            @keyframes float2 {
                0%{transform: translate(0, 0)}
                50%{transform: translate(-5px, -5px)}
                100%{transform: translate(0, 0)}
            }

            .triangle-float2 {
                animation: float2 4s infinite;
            }

            @keyframes float3 {
                0%{transform: translate(0, 0)}
                50%{transform: translate(0, -10px)}
                100%{transform: translate(0, 0)}
            }

            .triangle-float3 {
                animation: float3 6s infinite;
            }
        </style></defs></svg>